<?xml version="1.0" encoding="UTF-8"?><svg id="Layer_1" xmlns="http://www.w3.org/2000/svg" viewBox="0 0 33 33"><path d="M23.53,24.13H9.47c-1.33,0-2.4-1.08-2.4-2.4V13.44c0-1.33,1.08-2.4,2.4-2.4h1.43c.24,0,.52-.12,.66-.29l1.02-1.26c.28-.36,.88-.61,1.37-.61h5.08c.49,0,1.08,.25,1.37,.61l1.02,1.26c.14,.17,.43,.29,.66,.29h1.43c1.33,0,2.4,1.08,2.4,2.4v8.29c0,1.33-1.08,2.4-2.4,2.4Zm-7.03-11.29c-2.49,0-4.5,2.02-4.5,4.5s2.02,4.5,4.5,4.5,4.5-2.02,4.5-4.5-2.02-4.5-4.5-4.5Zm0,7.57c-1.69,0-3.06-1.37-3.06-3.06s1.37-3.06,3.06-3.06,3.06,1.37,3.06,3.06-1.37,3.06-3.06,3.06Z" style="fill:#35373a; fill-rule:evenodd;"/></svg>