<?xml version="1.0" encoding="UTF-8"?><svg id="Layer_1" xmlns="http://www.w3.org/2000/svg" viewBox="0 0 33 33"><path d="M12.29,17.04l-.84,4.1c-.05,.24,.17,.46,.41,.41l4.1-.84,.18-.1,8.82-8.82c.07-.07,.07-.18,0-.25l-3.5-3.5c-.07-.07-.18-.07-.25,0l-8.82,8.82-.1,.18Z"/><path d="M26.11,19.03h-1.52c-.28,0-.51,.23-.51,.51v7.08H6.39V8.92h5.82c.28,0,.51-.23,.51-.51v-1.52c0-.28-.23-.51-.51-.51H5.12c-.7,0-1.26,.57-1.26,1.26V27.88c0,.7,.57,1.26,1.26,1.26H25.35c.7,0,1.26-.57,1.26-1.26v-8.34c0-.28-.23-.51-.51-.51h.01Z"/><path d="M28.88,6.62l-2.5-2.5c-.35-.35-.91-.35-1.25,0l-1.85,1.85c-.1,.1-.1,.26,0,.36l3.4,3.4c.1,.1,.26,.1,.36,0l1.85-1.85c.35-.35,.35-.91,0-1.25h-.01Z"/></svg>